<svg version="1.0" xmlns="http://www.w3.org/2000/svg" width="666.667" height="666.667" viewBox="0 0 500 500"><path d="M0 250v250h119V363.7c.1-74.9 0-152.5 0-172.4 0-19.8.2-37.3.6-38.7l.6-2.5 3.6 2.4c2 1.4 4 2.5 4.5 2.5s2.3 1.1 4 2.4c1.8 1.3 5.9 3.7 9.2 5.4 3.3 1.6 8 4.1 10.5 5.6 2.5 1.4 5.3 2.9 6.3 3.2.9.4 1.7 1 1.7 1.4 0 .4.8 1 1.8 1.3 2.1.8 11.7 6 13.4 7.5 2 1.6 7 3.4 6.3 2.2-.3-.6 0-1 .8-1s1.7.9 2 2c.3 1.3 1.4 2 3 2 1.4 0 2.9.4 3.2 1 .3.5 1.7 1 2.9 1 1.3 0 2.9.7 3.6 1.5.7.8 1.9 1.5 2.7 1.5.8 0 3.2 1.3 5.3 3 2.1 1.6 4.5 3 5.3 3 .9 0 1.9.5 2.2 1 1.1 1.7 8.1 4.9 9.1 4.2 2.5-1.7 2.3-4.1-.6-5-1.6-.6-3.3-2-4-3.1-.6-1.3-2.1-2.1-3.8-2.2-1.9-.1-2.1-.3-.8-.6 1.5-.4 1.3-.8-1.3-2.4-1.7-1-3.6-1.9-4.2-1.9-.6 0-3-1.6-5.4-3.5-2.9-2.5-4.8-3.3-6-2.8-1.4.5-1.7.3-1.2-1 .4-1.2.1-1.7-1.1-1.7-.9 0-3-1.4-4.6-3.1-1.7-1.6-3.6-2.7-4.3-2.5-.7.3-1.7-.4-2.3-1.4-.6-1.1-2-2-3.1-2s-1.8-.4-1.4-.9c.3-.6-1.2-1.8-3.2-2.7-2.1-1-4.6-2.4-5.6-3.3-1.4-1.1-2-1.2-2.6-.3-.5.8-1.4.3-2.9-1.7-1.2-1.6-3.4-3.2-5-3.6-1.6-.3-3.5-1.7-4.2-3-.7-1.4-1.8-2.5-2.3-2.5-.6 0-2.8-1.4-5.1-3-2.3-1.7-7.7-5.4-12.2-8.3-4.4-2.8-9.6-6.5-11.4-8.1l-3.4-2.8-.4-13.4c-.4-13.7.1-18.9 1.8-17.9.6.3 1-.1 1-.9s-.5-1.8-1-2.1c-.5-.3-1-2.6-1-5 0-4.2.2-4.4 3.8-5.5 2-.6 5.3-1.9 7.2-2.8 1.9-.9 4-1.7 4.5-1.8.6 0 2.3-.6 3.8-1.2 1.6-.7 3.3-1.2 3.9-1.2 1.6 0 28.1-8 28.7-8.6.3-.4-1.6-.3-4.4.1-9.1 1.3-46.9 1.5-47.7.2-.4-.7-.8-16.6-.8-35.5V0H0v250zM170.6 2.2c-.9 1.2-1.6 2.9-1.6 3.7 0 .7-.8 1.9-1.7 2.6-1.5 1.1-1.5 1.8-.5 5.1.6 2 .9 4.1.6 4.6-.3.4.5.4 1.8-.1 3.1-1.2 10.6-1.2 11.3 0 .4.5.1.9-.5.9s-.8.4-.5 1c1.2 1.9 2.5 1 2.5-1.6 0-1.4.6-3.1 1.3-3.7 3.5-3.2 8.7-4.8 8.7-2.7 0 1.6 4.2 1.1 5.5-.6 1.5-2.1 4.7-1.4 9.9 2.1 4.3 2.9 4.6 3 4.6 1.1 0-2.2 9.3-4.5 10.5-2.6.3.5 2.1.7 4 .5 1.9-.2 3.8.1 4.1.6.4.6 1 .6 1.7.1s2.7-1.3 4.5-1.7c2-.4 3.2-1.3 3.2-2.3 0-1.3.2-1.3 1.4.3 1.1 1.6 1.8 1.7 3.8.8 2.1-.9 2.7-.7 4.6 1.4 1.7 1.9 2.5 2.3 3.6 1.4 1.6-1.4 4.6-.4 4.6 1.4 0 .7-.6 1.6-1.2 1.8-.8.3-.5.6.5.6 1.3.1 1.7.6 1.3 1.9-.4 1.2.3 2.3 2.4 3.5 1.7 1 3 2.7 3 3.8 0 1 .4 1.9 1 1.9.5 0 .7-.7.4-1.5-.5-1.3.2-1.5 3.9-1.2 2.5.1 4.9.6 5.3 1 .4.4 1.8.7 3.1.7 2.1 0 2.3.3 1.7 2.2-.6 2-.5 2.1 1 .9.9-.7 1.6-1.9 1.6-2.7 0-2.2 4.2-5.9 8.7-7.7 3.4-1.3 5.6-1.5 11.1-.8 3.8.5 7.8 1.4 9 2 1.1.6 2.8.8 3.6.5 1-.4 1.8 0 2.2 1 .7 1.9 6.9 5 8.3 4.2.5-.3 1.1-.2 1.3.4.2.6 5.5 2.4 11.8 4.1 6.3 1.7 11.9 3.4 12.5 3.8.9.7 4.5 1.8 11.3 3.6 1.7.5 2.2.2 2.2-1.4 0-2.1 3.2-8.4 5.7-11.2 1.8-2.2 12.6-7.9 14.7-7.9 1.5 0 1.6 5.3 1.6 62.2V500h114V0H386.1l-.3 3.1c-.3 3.1-.5 3.2-13.9 7.6-12.1 3.9-14.1 4.9-18 8.8-3 3-4.6 4-5.2 3.2-.6-.9-1-.9-1.4.1-.4 1.1-.8 1-2.2-.2-.9-.8-5.5-2-10.6-2.6-23.9-3-39.2-6.2-56-11.5-4.4-1.4-8-2.4-8-2.3 0 .5-11.3-3.7-13-4.8C255.9.3 247.3 0 213.8 0h-41.7l-1.5 2.2zM261 11c0 .5-.7 1-1.5 1s-1.5-.5-1.5-1c0-.6.7-1 1.5-1s1.5.4 1.5 1zm3 9c0 .5-.4 1-1 1-.5 0-1-.5-1-1 0-.6.5-1 1-1 .6 0 1 .4 1 1z"/><path d="M216 14c0 .5.9 1 2 1s2-.5 2-1c0-.6-.9-1-2-1s-2 .4-2 1zm24.7-.4c-.4.4-.7 1.4-.7 2.3 0 1.1.3 1.2 1.1.4.6-.6 1-1.6.7-2.3-.2-.6-.7-.8-1.1-.4zM188.5 15c-.3.5-.1 1 .4 1 .6 0 1.1-.5 1.1-1 0-.6-.2-1-.4-1-.3 0-.8.4-1.1 1zm11.5 0c0 .5.7 1 1.6 1 .8 0 1.2-.5.9-1-.3-.6-1-1-1.6-1-.5 0-.9.4-.9 1zm-6.5 2c.4.6 1.1.8 1.6.5 1.4-.9 1.1-1.5-.7-1.5-.8 0-1.2.5-.9 1zm-6.5 1c0 .5 1 1 2.3 1 1.8 0 1.9-.2.7-1-1.9-1.3-3-1.3-3 0zm-29.4 1.5c-1.1.8-1.6 1.8-1.2 2.2.4.4 1.1.2 1.5-.5.4-.7 1.5-1 2.3-.7.9.4 1.8 0 2.1-.9.8-2.1-2.1-2.1-4.7-.1zm53.6-.3c-2 2-1.4 2.8 1.3 1.6 1.3-.6 2.2-1.5 1.9-1.9-.7-1.2-1.8-1.1-3.2.3zm10.6.5c1.2.2 2 .9 1.7 1.4-.4.5.1.9.9.9.9 0 1.6-.4 1.6-.9 0-1.1-2.6-2.1-4.8-2-1 .1-.8.4.6.6zm-17 1c.6.2 1.8.2 2.5 0 .6-.3.1-.5-1.3-.5-1.4 0-1.9.2-1.2.5zm32.2.4c0 .5.5.7 1 .4.6-.3 1-.8 1-1.1 0-.2-.4-.4-1-.4-.5 0-1 .5-1 1.1zm22.8 5.6c.7.3 1.6.2 1.9-.1.4-.3-.2-.6-1.3-.5-1.1 0-1.4.3-.6.6zM335 134.1c-1.9.4-7.6.9-12.7 1-7.1.1-9.3.5-9.7 1.6-.4.8-1.3 1.3-2.1.9-.8-.3-1.5-.1-1.5.4 0 .9.8 1.2 2.7.9.3 0 1 .6 1.5 1.5 1 1.8 4 2.1 6.9.6 1.4-.8 2.4-.7 3.8.2 1.3.9 4.5 1.2 10.7.9 4.9-.2 17.7-.4 28.4-.3 20.7 0 21.8-.6 5.2-3.1-6.8-1.1-11.2-2.3-13.1-3.6-2.3-1.7-4.3-2.1-9.8-2-3.7.1-8.4.5-10.3 1zm-59.2 45.3c-2 .6-3.9 1.4-4.3 1.8-1.1 1.1 3.5 6.5 7.4 8.5 2 1 3.8 2 4.1 2.3 5.2 5.2 19.1 15.2 24.8 17.8 4.3 2 9.2 5.1 10.7 6.8 1.3 1.5 13.7 12 19.5 16.4 2.5 1.9 6.1 4.9 8 6.7 5.9 5.3 16.2 13.3 17.2 13.3.5 0 1.8 1 2.8 2.2l1.9 2.3-.4-2.5c-.4-2.4-.4-2.4 1-.6 2.2 3 3 1.1.9-2.1-1-1.5-1.9-3.1-1.9-3.4 0-.4-1.6-3.1-3.4-6-3.3-5.2-12.4-14.6-18.5-19.2-1.5-1.2-4.2-3.3-6-4.7-1.7-1.4-10.8-7.7-20.3-14-12-7.9-17.6-12.3-18.4-14.1-1.1-2.7-2.7-3.9-6.3-4.6-1.1-.2-2.8-1.2-3.7-2.2-1-1-3.4-2.2-5.3-2.5-2-.4-3.6-1.3-3.6-2 0-1.5-1.3-1.6-6.2-.2zm-44 27.2c-1 .9.3 3.4 1.7 3.4.7 0 1.2-.8 1.1-1.7-.3-1.8-1.8-2.7-2.8-1.7z"/></svg>