<?xml version="1.0" standalone="no"?>
<!DOCTYPE svg PUBLIC "-//W3C//DTD SVG 20010904//EN"
 "http://www.w3.org/TR/2001/REC-SVG-20010904/DTD/svg10.dtd">
<svg version="1.0" xmlns="http://www.w3.org/2000/svg"
 width="500.000000pt" height="500.000000pt" viewBox="0 0 500.000000 500.000000"
 preserveAspectRatio="xMidYMid meet">
<metadata>
Created by potrace 1.11, written by Peter Selinger 2001-2013
</metadata>
<g transform="translate(0.000000,500.000000) scale(0.100000,-0.100000)"
fill="#000000" stroke="none">
<path d="M0 2500 l0 -2500 595 0 595 0 0 1363 c1 749 0 1525 0 1724 0 198 2
373 6 387 l6 25 36 -24 c20 -14 40 -25 45 -25 5 0 23 -11 40 -24 18 -13 59
-37 92 -54 33 -16 80 -41 105 -56 25 -14 53 -29 63 -32 9 -4 17 -10 17 -14 0
-4 8 -10 18 -13 21 -8 117 -60 134 -75 20 -16 70 -34 63 -22 -3 6 0 10 8 10 8
0 17 -9 20 -20 3 -13 14 -20 30 -20 14 0 29 -4 32 -10 3 -5 17 -10 29 -10 13
0 29 -7 36 -15 7 -8 19 -15 27 -15 8 0 32 -13 53 -30 21 -16 45 -30 53 -30 9
0 19 -5 22 -10 11 -17 81 -49 91 -42 25 17 23 41 -6 50 -16 6 -33 20 -40 31
-6 13 -21 21 -38 22 -19 1 -21 3 -8 6 15 4 13 8 -13 24 -17 10 -36 19 -42 19
-6 0 -30 16 -54 35 -29 25 -48 33 -60 28 -14 -5 -17 -3 -12 10 4 12 1 17 -11
17 -9 0 -30 14 -46 31 -17 16 -36 27 -43 25 -7 -3 -17 4 -23 14 -6 11 -20 20
-31 20 -11 0 -18 4 -14 9 3 6 -12 18 -32 27 -21 10 -46 24 -56 33 -14 11 -20
12 -26 3 -5 -8 -14 -3 -29 17 -12 16 -34 32 -50 36 -16 3 -35 17 -42 30 -7 14
-18 25 -23 25 -6 0 -28 14 -51 30 -23 17 -77 54 -122 83 -44 28 -96 65 -114
81 l-34 28 -4 134 c-4 137 1 189 18 179 6 -3 10 1 10 9 0 8 -5 18 -10 21 -5 3
-10 26 -10 50 0 42 2 44 38 55 20 6 53 19 72 28 19 9 40 17 45 18 6 0 23 6 38
12 16 7 33 12 39 12 16 0 281 80 287 86 3 4 -16 3 -44 -1 -91 -13 -469 -15
-477 -2 -4 7 -8 166 -8 355 l0 342 -595 0 -595 0 0 -2500z"/>
<path d="M1706 4978 c-9 -12 -16 -29 -16 -37 0 -7 -8 -19 -17 -26 -15 -11 -15
-18 -5 -51 6 -20 9 -41 6 -46 -3 -4 5 -4 18 1 31 12 106 12 113 0 4 -5 1 -9
-5 -9 -6 0 -8 -4 -5 -10 12 -19 25 -10 25 16 0 14 6 31 13 37 35 32 87 48 87
27 0 -16 42 -11 55 6 15 21 47 14 99 -21 43 -29 46 -30 46 -11 0 22 93 45 105
26 3 -5 21 -7 40 -5 19 2 38 -1 41 -6 4 -6 10 -6 17 -1 7 5 27 13 45 17 20 4
32 13 32 23 0 13 2 13 14 -3 11 -16 18 -17 38 -8 21 9 27 7 46 -14 17 -19 25
-23 36 -14 16 14 46 4 46 -14 0 -7 -6 -16 -12 -18 -8 -3 -5 -6 5 -6 13 -1 17
-6 13 -19 -4 -12 3 -23 24 -35 17 -10 30 -27 30 -38 0 -10 4 -19 10 -19 5 0 7
7 4 15 -5 13 2 15 39 12 25 -1 49 -6 53 -10 4 -4 18 -7 31 -7 21 0 23 -3 17
-22 -6 -20 -5 -21 10 -9 9 7 16 19 16 27 0 22 42 59 87 77 34 13 56 15 111 8
38 -5 78 -14 90 -20 11 -6 28 -8 36 -5 10 4 18 0 22 -10 7 -19 69 -50 83 -42
5 3 11 2 13 -4 2 -6 55 -24 118 -41 63 -17 119 -34 125 -38 9 -7 45 -18 113
-36 17 -5 22 -2 22 14 0 21 32 84 57 112 18 22 126 79 147 79 15 0 16 -53 16
-622 0 -343 0 -1427 0 -2410 l0 -1788 570 0 570 0 0 2500 0 2500 -569 0 -570
0 -3 -31 c-3 -31 -5 -32 -139 -76 -121 -39 -141 -49 -180 -88 -30 -30 -46 -40
-52 -32 -6 9 -10 9 -14 -1 -4 -11 -8 -10 -22 2 -9 8 -55 20 -106 26 -239 30
-392 62 -560 115 -44 14 -80 24 -80 23 0 -5 -113 37 -130 48 -16 11 -102 14
-437 14 l-417 0 -15 -22z m904 -88 c0 -5 -7 -10 -15 -10 -8 0 -15 5 -15 10 0
6 7 10 15 10 8 0 15 -4 15 -10z m30 -90 c0 -5 -4 -10 -10 -10 -5 0 -10 5 -10
10 0 6 5 10 10 10 6 0 10 -4 10 -10z"/>
<path d="M2160 4860 c0 -5 9 -10 20 -10 11 0 20 5 20 10 0 6 -9 10 -20 10 -11
0 -20 -4 -20 -10z"/>
<path d="M2407 4864 c-4 -4 -7 -14 -7 -23 0 -11 3 -12 11 -4 6 6 10 16 7 23
-2 6 -7 8 -11 4z"/>
<path d="M1885 4850 c-3 -5 -1 -10 4 -10 6 0 11 5 11 10 0 6 -2 10 -4 10 -3 0
-8 -4 -11 -10z"/>
<path d="M2000 4850 c0 -5 7 -10 16 -10 8 0 12 5 9 10 -3 6 -10 10 -16 10 -5
0 -9 -4 -9 -10z"/>
<path d="M1935 4830 c4 -6 11 -8 16 -5 14 9 11 15 -7 15 -8 0 -12 -5 -9 -10z"/>
<path d="M1870 4820 c0 -5 10 -10 23 -10 18 0 19 2 7 10 -19 13 -30 13 -30 0z"/>
<path d="M1576 4805 c-11 -8 -16 -18 -12 -22 4 -4 11 -2 15 5 4 7 15 10 23 7
9 -4 18 0 21 9 8 21 -21 21 -47 1z"/>
<path d="M2112 4808 c-20 -20 -14 -28 13 -16 13 6 22 15 19 19 -7 12 -18 11
-32 -3z"/>
<path d="M2218 4803 c12 -2 20 -9 17 -14 -4 -5 1 -9 9 -9 9 0 16 4 16 9 0 11
-26 21 -48 20 -10 -1 -8 -4 6 -6z"/>
<path d="M2048 4793 c6 -2 18 -2 25 0 6 3 1 5 -13 5 -14 0 -19 -2 -12 -5z"/>
<path d="M2370 4789 c0 -5 5 -7 10 -4 6 3 10 8 10 11 0 2 -4 4 -10 4 -5 0 -10
-5 -10 -11z"/>
<path d="M2598 4733 c7 -3 16 -2 19 1 4 3 -2 6 -13 5 -11 0 -14 -3 -6 -6z"/>
<path d="M3350 3659 c-19 -4 -76 -9 -127 -10 -71 -1 -93 -5 -97 -16 -4 -8 -13
-13 -21 -9 -8 3 -15 1 -15 -4 0 -9 8 -12 27 -9 3 0 10 -6 15 -15 10 -18 40
-21 69 -6 14 8 24 7 38 -2 13 -9 45 -12 107 -9 49 2 177 4 284 3 207 0 218 6
52 31 -68 11 -112 23 -131 36 -23 17 -43 21 -98 20 -37 -1 -84 -5 -103 -10z"/>
<path d="M2758 3206 c-20 -6 -39 -14 -43 -18 -11 -11 35 -65 74 -85 20 -10 38
-20 41 -23 52 -52 191 -152 248 -178 43 -20 92 -51 107 -68 13 -15 137 -120
195 -164 25 -19 61 -49 80 -67 59 -53 162 -133 172 -133 5 0 18 -10 28 -22
l19 -23 -4 25 c-4 24 -4 24 10 6 22 -30 30 -11 9 21 -10 15 -19 31 -19 34 0 4
-16 31 -34 60 -33 52 -124 146 -185 192 -15 12 -42 33 -60 47 -17 14 -108 77
-203 140 -120 79 -176 123 -184 141 -11 27 -27 39 -63 46 -11 2 -28 12 -37 22
-10 10 -34 22 -53 25 -20 4 -36 13 -36 20 0 15 -13 16 -62 2z"/>
<path d="M2318 2934 c-10 -9 3 -34 17 -34 7 0 12 8 11 17 -3 18 -18 27 -28 17z"/>
</g>
</svg>
